<svg width="334" height="92" viewBox="0 0 334 92" fill="none" xmlns="http://www.w3.org/2000/svg">
<path d="M140.784 37.344L135.66 57H129.864L126.728 44.064L123.48 57H117.684L112.7 37.344H117.824L120.652 51.652L124.152 37.344H129.416L132.776 51.652L135.632 37.344H140.784ZM157.913 48.936C157.913 49.384 157.885 49.8507 157.829 50.336H146.993C147.068 51.3067 147.376 52.0533 147.917 52.576C148.477 53.08 149.159 53.332 149.961 53.332C151.156 53.332 151.987 52.828 152.453 51.82H157.549C157.288 52.8467 156.812 53.7707 156.121 54.592C155.449 55.4133 154.6 56.0573 153.573 56.524C152.547 56.9907 151.399 57.224 150.129 57.224C148.599 57.224 147.236 56.8973 146.041 56.244C144.847 55.5907 143.913 54.6573 143.241 53.444C142.569 52.2307 142.233 50.812 142.233 49.188C142.233 47.564 142.56 46.1453 143.213 44.932C143.885 43.7187 144.819 42.7853 146.013 42.132C147.208 41.4787 148.58 41.152 150.129 41.152C151.641 41.152 152.985 41.4693 154.161 42.104C155.337 42.7387 156.252 43.644 156.905 44.82C157.577 45.996 157.913 47.368 157.913 48.936ZM153.013 47.676C153.013 46.8547 152.733 46.2013 152.173 45.716C151.613 45.2307 150.913 44.988 150.073 44.988C149.271 44.988 148.589 45.2213 148.029 45.688C147.488 46.1547 147.152 46.8173 147.021 47.676H153.013ZM159.487 49.16C159.487 47.5547 159.786 46.1453 160.383 44.932C160.999 43.7187 161.83 42.7853 162.875 42.132C163.92 41.4787 165.087 41.152 166.375 41.152C167.476 41.152 168.438 41.376 169.259 41.824C170.099 42.272 170.743 42.86 171.191 43.588V41.376H175.979V57H171.191V54.788C170.724 55.516 170.071 56.104 169.231 56.552C168.41 57 167.448 57.224 166.347 57.224C165.078 57.224 163.92 56.8973 162.875 56.244C161.83 55.572 160.999 54.6293 160.383 53.416C159.786 52.184 159.487 50.7653 159.487 49.16ZM171.191 49.188C171.191 47.9933 170.855 47.0507 170.183 46.36C169.53 45.6693 168.727 45.324 167.775 45.324C166.823 45.324 166.011 45.6693 165.339 46.36C164.686 47.032 164.359 47.9653 164.359 49.16C164.359 50.3547 164.686 51.3067 165.339 52.016C166.011 52.7067 166.823 53.052 167.775 53.052C168.727 53.052 169.53 52.7067 170.183 52.016C170.855 51.3253 171.191 50.3827 171.191 49.188ZM188.151 52.94V57H185.715C183.979 57 182.626 56.58 181.655 55.74C180.684 54.8813 180.199 53.4907 180.199 51.568V45.352H178.295V41.376H180.199V37.568H184.987V41.376H188.123V45.352H184.987V51.624C184.987 52.0907 185.099 52.4267 185.323 52.632C185.547 52.8373 185.92 52.94 186.443 52.94H188.151ZM200.422 41.208C202.214 41.208 203.651 41.8053 204.734 43C205.817 44.176 206.358 45.8 206.358 47.872V57H201.598V48.516C201.598 47.4707 201.327 46.6587 200.786 46.08C200.245 45.5013 199.517 45.212 198.602 45.212C197.687 45.212 196.959 45.5013 196.418 46.08C195.877 46.6587 195.606 47.4707 195.606 48.516V57H190.818V36.28H195.606V43.476C196.091 42.7853 196.754 42.2347 197.594 41.824C198.434 41.4133 199.377 41.208 200.422 41.208ZM224.413 48.936C224.413 49.384 224.385 49.8507 224.329 50.336H213.493C213.568 51.3067 213.876 52.0533 214.417 52.576C214.977 53.08 215.659 53.332 216.461 53.332C217.656 53.332 218.487 52.828 218.953 51.82H224.049C223.788 52.8467 223.312 53.7707 222.621 54.592C221.949 55.4133 221.1 56.0573 220.073 56.524C219.047 56.9907 217.899 57.224 216.629 57.224C215.099 57.224 213.736 56.8973 212.541 56.244C211.347 55.5907 210.413 54.6573 209.741 53.444C209.069 52.2307 208.733 50.812 208.733 49.188C208.733 47.564 209.06 46.1453 209.713 44.932C210.385 43.7187 211.319 42.7853 212.513 42.132C213.708 41.4787 215.08 41.152 216.629 41.152C218.141 41.152 219.485 41.4693 220.661 42.104C221.837 42.7387 222.752 43.644 223.405 44.82C224.077 45.996 224.413 47.368 224.413 48.936ZM219.513 47.676C219.513 46.8547 219.233 46.2013 218.673 45.716C218.113 45.2307 217.413 44.988 216.573 44.988C215.771 44.988 215.089 45.2213 214.529 45.688C213.988 46.1547 213.652 46.8173 213.521 47.676H219.513ZM231.727 43.98C232.287 43.1213 232.987 42.4493 233.827 41.964C234.667 41.46 235.6 41.208 236.627 41.208V46.276H235.311C234.116 46.276 233.22 46.5373 232.623 47.06C232.026 47.564 231.727 48.46 231.727 49.748V57H226.939V41.376H231.727V43.98ZM258.989 37.344V41.18H253.781V57H248.993V41.18H243.785V37.344H258.989ZM268.504 57.224C266.974 57.224 265.592 56.8973 264.36 56.244C263.147 55.5907 262.186 54.6573 261.476 53.444C260.786 52.2307 260.44 50.812 260.44 49.188C260.44 47.5827 260.795 46.1733 261.504 44.96C262.214 43.728 263.184 42.7853 264.416 42.132C265.648 41.4787 267.03 41.152 268.56 41.152C270.091 41.152 271.472 41.4787 272.704 42.132C273.936 42.7853 274.907 43.728 275.616 44.96C276.326 46.1733 276.68 47.5827 276.68 49.188C276.68 50.7933 276.316 52.212 275.588 53.444C274.879 54.6573 273.899 55.5907 272.648 56.244C271.416 56.8973 270.035 57.224 268.504 57.224ZM268.504 53.08C269.419 53.08 270.194 52.744 270.828 52.072C271.482 51.4 271.808 50.4387 271.808 49.188C271.808 47.9373 271.491 46.976 270.856 46.304C270.24 45.632 269.475 45.296 268.56 45.296C267.627 45.296 266.852 45.632 266.236 46.304C265.62 46.9573 265.312 47.9187 265.312 49.188C265.312 50.4387 265.611 51.4 266.208 52.072C266.824 52.744 267.59 53.08 268.504 53.08ZM278.268 49.16C278.268 47.5547 278.567 46.1453 279.164 44.932C279.78 43.7187 280.611 42.7853 281.656 42.132C282.702 41.4787 283.868 41.152 285.156 41.152C286.183 41.152 287.116 41.3667 287.956 41.796C288.815 42.2253 289.487 42.804 289.972 43.532V36.28H294.76V57H289.972V54.76C289.524 55.5067 288.88 56.104 288.04 56.552C287.219 57 286.258 57.224 285.156 57.224C283.868 57.224 282.702 56.8973 281.656 56.244C280.611 55.572 279.78 54.6293 279.164 53.416C278.567 52.184 278.268 50.7653 278.268 49.16ZM289.972 49.188C289.972 47.9933 289.636 47.0507 288.964 46.36C288.311 45.6693 287.508 45.324 286.556 45.324C285.604 45.324 284.792 45.6693 284.12 46.36C283.467 47.032 283.14 47.9653 283.14 49.16C283.14 50.3547 283.467 51.3067 284.12 52.016C284.792 52.7067 285.604 53.052 286.556 53.052C287.508 53.052 288.311 52.7067 288.964 52.016C289.636 51.3253 289.972 50.3827 289.972 49.188ZM297.272 49.16C297.272 47.5547 297.571 46.1453 298.168 44.932C298.784 43.7187 299.615 42.7853 300.66 42.132C301.706 41.4787 302.872 41.152 304.16 41.152C305.262 41.152 306.223 41.376 307.044 41.824C307.884 42.272 308.528 42.86 308.976 43.588V41.376H313.764V57H308.976V54.788C308.51 55.516 307.856 56.104 307.016 56.552C306.195 57 305.234 57.224 304.132 57.224C302.863 57.224 301.706 56.8973 300.66 56.244C299.615 55.572 298.784 54.6293 298.168 53.416C297.571 52.184 297.272 50.7653 297.272 49.16ZM308.976 49.188C308.976 47.9933 308.64 47.0507 307.968 46.36C307.315 45.6693 306.512 45.324 305.56 45.324C304.608 45.324 303.796 45.6693 303.124 46.36C302.471 47.032 302.144 47.9653 302.144 49.16C302.144 50.3547 302.471 51.3067 303.124 52.016C303.796 52.7067 304.608 53.052 305.56 53.052C306.512 53.052 307.315 52.7067 307.968 52.016C308.64 51.3253 308.976 50.3827 308.976 49.188ZM333.188 41.376L323.388 64.42H318.236L321.82 56.468L315.464 41.376H320.812L324.424 51.148L328.008 41.376H333.188Z" fill="white"/>
<path d="M110 80.8482H0V80.9099H110V80.8482Z" fill="#EBEBEB"/>
<path d="M98.978 84.8215H91.6916V84.8832H98.978V84.8215Z" fill="#EBEBEB"/>
<path d="M72.8684 85.4932H70.9566V85.5549H72.8684V85.4932Z" fill="#EBEBEB"/>
<path d="M91.4716 82.5298H87.2498V82.5916H91.4716V82.5298Z" fill="#EBEBEB"/>
<path d="M21.043 82.9448H11.5412V83.0065H21.043V82.9448Z" fill="#EBEBEB"/>
<path d="M24.3958 82.9448H23.0032V83.0065H24.3958V82.9448Z" fill="#EBEBEB"/>
<path d="M49.533 83.9868H28.9234V84.0486H49.533V83.9868Z" fill="#EBEBEB"/>
<path d="M52.14 69.8347H9.66019C9.32741 69.834 9.00845 69.6852 8.77334 69.4208C8.53824 69.1565 8.40619 68.7982 8.40619 68.4246V1.39768C8.40909 1.02629 8.54241 0.671178 8.77721 0.409481C9.012 0.147783 9.3293 0.000636214 9.66019 0H52.14C52.4732 0 52.7927 0.148556 53.0283 0.412988C53.2638 0.677419 53.3962 1.03607 53.3962 1.41003V68.4246C53.3962 68.7986 53.2638 69.1573 53.0283 69.4217C52.7927 69.6861 52.4732 69.8347 52.14 69.8347ZM9.66019 0.0493882C9.34199 0.0500424 9.03703 0.192382 8.81223 0.445166C8.58744 0.697949 8.46119 1.04052 8.46119 1.39768V68.4246C8.46119 68.7818 8.58744 69.1244 8.81223 69.3772C9.03703 69.6299 9.34199 69.7723 9.66019 69.7729H52.14C52.4584 69.7723 52.7636 69.63 52.9887 69.3773C53.2139 69.1246 53.3406 68.782 53.3412 68.4246V1.39768C53.3406 1.04029 53.2139 0.697728 52.9887 0.445015C52.7636 0.192302 52.4584 0.050041 52.14 0.0493882H9.66019Z" fill="#EBEBEB"/>
<path d="M99.7282 69.8347H57.2462C56.9132 69.834 56.594 69.6853 56.3586 69.421C56.1231 69.1567 55.9906 68.7984 55.99 68.4246V1.39768C55.9935 1.02606 56.1273 0.670955 56.3624 0.409326C56.5976 0.147697 56.9151 0.000629275 57.2462 0H99.7282C100.059 0.0012852 100.375 0.148719 100.61 0.410347C100.844 0.671975 100.977 1.02672 100.98 1.39768V68.4246C100.98 68.7978 100.848 69.1557 100.614 69.4199C100.379 69.6842 100.061 69.8334 99.7282 69.8347ZM57.2462 0.0493882C56.9278 0.050041 56.6226 0.192302 56.3975 0.445015C56.1723 0.697728 56.0456 1.04029 56.045 1.39768V68.4246C56.0456 68.782 56.1723 69.1246 56.3975 69.3773C56.6226 69.63 56.9278 69.7723 57.2462 69.7729H99.7282C100.047 69.7723 100.352 69.63 100.577 69.3773C100.802 69.1246 100.929 68.782 100.929 68.4246V1.39768C100.929 1.04029 100.802 0.697728 100.577 0.445015C100.352 0.192302 100.047 0.050041 99.7282 0.0493882H57.2462Z" fill="#EBEBEB"/>
<path d="M16.3988 48.3682L50.6352 48.3682L50.6352 6.1167L16.3988 6.1167L16.3988 48.3682Z" fill="#E6E6E6"/>
<path d="M15.2812 48.3682L50.1138 48.3682L50.1138 6.1167L15.2812 6.1167L15.2812 48.3682Z" fill="#F0F0F0"/>
<path d="M16.401 48.3682H50.6374V50.2103H15.3076L16.401 48.3682Z" fill="#E6E6E6"/>
<path d="M13.4222 48.3682H48.2526L47.1592 50.2103H12.3266L13.4222 48.3682Z" fill="#F0F0F0"/>
<path d="M48.5518 46.6124V7.87244L16.8476 7.87244L16.8476 46.6124H48.5518Z" fill="#FAFAFA"/>
<path d="M43.2102 46.6124L30.965 7.87494H26.631L38.8762 46.6124H43.2102Z" fill="white"/>
<path d="M47.8258 45.3827C47.8417 45.3827 47.8574 45.3792 47.8721 45.3723C47.8868 45.3655 47.9001 45.3555 47.9114 45.3429C47.9226 45.3303 47.9315 45.3153 47.9376 45.2988C47.9437 45.2824 47.9468 45.2647 47.9468 45.2469V9.01579C47.9462 8.9802 47.9332 8.94629 47.9106 8.92135C47.888 8.89641 47.8575 8.88244 47.8258 8.88245C47.8102 8.88245 47.7947 8.8859 47.7803 8.8926C47.7659 8.8993 47.7528 8.90912 47.7418 8.9215C47.7308 8.93388 47.722 8.94859 47.716 8.96476C47.7101 8.98094 47.707 8.99828 47.707 9.01579V45.2469C47.707 45.2825 47.7194 45.3166 47.7417 45.342C47.7639 45.3674 47.7941 45.382 47.8258 45.3827Z" fill="#F0F0F0"/>
<path d="M33.9856 46.6124L21.7404 7.87494H20.0508L32.296 46.6124H33.9856Z" fill="white"/>
<path d="M17.0456 46.6149L17.0456 7.87494H16.8476L16.8476 46.6149H17.0456Z" fill="#E6E6E6"/>
<path opacity="0.5" d="M14.9116 11.263H49.1502L49.2932 8.55652H15.0568L14.9116 11.263Z" fill="#E0E0E0"/>
<path opacity="0.5" d="M14.9116 15.7104H49.1502L49.2932 13.0039H15.0568L14.9116 15.7104Z" fill="#E0E0E0"/>
<path opacity="0.5" d="M14.9116 20.1577H49.1502L49.2932 17.4537H15.0568L14.9116 20.1577Z" fill="#E0E0E0"/>
<path opacity="0.5" d="M14.9116 24.6051H49.1502L49.2932 21.9011H15.0568L14.9116 24.6051Z" fill="#E0E0E0"/>
<path opacity="0.5" d="M14.9116 29.055H49.1502L49.2932 26.3485H15.0568L14.9116 29.055Z" fill="#E0E0E0"/>
<path opacity="0.5" d="M14.9116 33.5024H49.1502L49.2932 30.7959H15.0568L14.9116 33.5024Z" fill="#E0E0E0"/>
<path d="M93.4296 11.8531H66.3014V25.4966H93.4296V11.8531Z" fill="#F5F5F5"/>
<path d="M93.4296 11.8531H66.3014V12.3322H93.4296V11.8531Z" fill="#E0E0E0"/>
<path d="M93.4296 25.0175H66.3014V25.4966H93.4296V25.0175Z" fill="#E0E0E0"/>
<path d="M79.4398 80.8482L79.0592 25.4966H80.6718L80.2912 80.8482H79.4398Z" fill="#EBEBEB"/>
<path d="M67.9008 80.8482L82.3834 25.4966H83.9982L68.7522 80.8482H67.9008Z" fill="#EBEBEB"/>
<path d="M91.8324 80.8482L77.3498 25.4966H75.735L90.981 80.8482H91.8324Z" fill="#EBEBEB"/>
<path d="M17.8706 81.7939H19.4304L19.4304 58.6359H17.8706L17.8706 81.7939Z" fill="#E6E6E6"/>
<path d="M17.3756 81.7939H18.4602L18.4602 58.6359H17.3756L17.3756 81.7939Z" fill="#F0F0F0"/>
<path d="M51.5262 57.5568H17.0236V60.7843H51.5262V57.5568Z" fill="#F0F0F0"/>
<path d="M50.6374 80.7173H52.1972V60.7868H50.6374V80.7173Z" fill="#E6E6E6"/>
<path d="M50.1446 80.7173H51.2292V60.7868H50.1446V80.7173Z" fill="#F0F0F0"/>
<path d="M61.7452 80.7173H63.305V60.7868H61.7452V80.7173Z" fill="#E6E6E6"/>
<path d="M61.2524 80.7173H62.337V60.7868H61.2524V80.7173Z" fill="#F0F0F0"/>
<path d="M27.7464 80.7173H29.3062L29.3062 60.7868H27.7464L27.7464 80.7173Z" fill="#E6E6E6"/>
<path d="M27.2514 80.7173H28.336L28.336 60.7868H27.2514L27.2514 80.7173Z" fill="#F0F0F0"/>
<path d="M51.524 60.7868H63.6592V57.5593H51.524V60.7868Z" fill="#E6E6E6"/>
<path d="M44.2596 55.1467H29.3062V57.5568H44.2596V55.1467Z" fill="#EBEBEB"/>
<path d="M44.2596 57.5593H51.5812V55.1491H44.2596V57.5593Z" fill="#E0E0E0"/>
<path d="M46.1516 56.3542H49.6892C49.8569 56.3542 49.9928 56.2017 49.9928 56.0135C49.9928 55.8253 49.8569 55.6727 49.6892 55.6727H46.1516C45.9839 55.6727 45.848 55.8253 45.848 56.0135C45.848 56.2017 45.9839 56.3542 46.1516 56.3542Z" fill="#F5F5F5"/>
<path d="M37.323 53.4156H34.3112V55.1467H37.323V53.4156Z" fill="#F5F5F5"/>
<path d="M35.926 52.6921H35.7082V53.4156H35.926V52.6921Z" fill="#E6E6E6"/>
<path d="M40.0092 53.7169H39.7914V54.0774H40.0092V53.7169Z" fill="#E6E6E6"/>
<path d="M41.734 54.0774H38.0666V55.1466H41.734V54.0774Z" fill="#F0F0F0"/>
<path d="M55 92C78.5582 92 97.6558 90.7485 97.6558 89.2047C97.6558 87.6608 78.5582 86.4093 55 86.4093C31.4419 86.4093 12.3442 87.6608 12.3442 89.2047C12.3442 90.7485 31.4419 92 55 92Z" fill="#F5F5F5"/>
<path d="M50.3096 9.02319H48.7696V9.27013H50.3096V9.02319Z" fill="#0D214E"/>
<path d="M47.3484 9.02319H39.8618V9.27013H47.3484V9.02319Z" fill="#0D214E"/>
<path d="M88.3212 43.5998H19.162C18.4783 43.5825 17.8231 43.2886 17.317 42.7723C16.8109 42.256 16.488 41.5519 16.4076 40.7896L13.8886 12.6977C13.8482 12.3414 13.8765 11.9796 13.9716 11.6367C14.0667 11.2939 14.2264 10.978 14.4399 10.7105C14.6534 10.443 14.9156 10.2302 15.2088 10.0865C15.502 9.94279 15.8193 9.87155 16.1392 9.87762H85.2984C85.9822 9.89534 86.6374 10.1893 87.1438 10.7055C87.6501 11.2216 87.9736 11.9255 88.055 12.6878L90.5718 40.7797C90.6126 41.136 90.5845 41.498 90.4896 41.8411C90.3946 42.1841 90.2349 42.5002 90.0213 42.7678C89.8078 43.0353 89.5454 43.2481 89.252 43.3917C88.9587 43.5353 88.6412 43.6062 88.3212 43.5998Z" fill="#0D214E"/>
<path opacity="0.3" d="M29.0642 41.486H20.746C20.0972 41.4686 19.4757 41.1895 18.9953 40.6997C18.5149 40.2099 18.2078 39.5423 18.1302 38.819L15.9654 14.6559C15.9278 14.3184 15.9553 13.9758 16.046 13.6513C16.1367 13.3268 16.2885 13.028 16.4911 12.7751C16.6937 12.5222 16.9423 12.3211 17.2202 12.1854C17.498 12.0498 17.7986 11.9828 18.1016 11.989H26.4198C27.0706 12.0044 27.6945 12.2836 28.1762 12.7752C28.6578 13.2668 28.9647 13.9375 29.04 14.6633L31.207 38.8264C31.2436 39.164 31.2152 39.5064 31.1236 39.8305C31.0321 40.1547 30.8796 40.453 30.6764 40.7052C30.4732 40.9574 30.2241 41.1576 29.9459 41.2923C29.6678 41.427 29.3671 41.4931 29.0642 41.486Z" fill="white"/>
<path d="M43.6062 42.4737H34.8304C34.1457 42.4559 33.4896 42.1614 32.9828 41.6442C32.476 41.1271 32.1525 40.422 32.0716 39.6586L29.755 13.8287C29.7142 13.4718 29.7423 13.1093 29.8375 12.7658C29.9328 12.4222 30.0928 12.1058 30.3068 11.8379C30.5208 11.5701 30.7837 11.3571 31.0776 11.2136C31.3715 11.0701 31.6895 10.9993 32.01 11.0061H40.7858C41.4717 11.0237 42.1288 11.3191 42.6358 11.8378C43.1429 12.3566 43.4656 13.0637 43.5446 13.8287L45.8612 39.6783C45.8979 40.033 45.8667 40.3924 45.7696 40.7324C45.6726 41.0725 45.5119 41.3853 45.2984 41.6499C45.0849 41.9146 44.8234 42.125 44.5316 42.2671C44.2398 42.4092 43.9243 42.4796 43.6062 42.4737Z" fill="white"/>
<path opacity="0.3" d="M57.5146 41.486H49.1964C48.5477 41.4691 47.9262 41.19 47.4461 40.7001C46.966 40.2102 46.6594 39.5423 46.5828 38.819L44.4158 14.6559C44.3782 14.3184 44.4057 13.9758 44.4964 13.6513C44.5871 13.3268 44.7389 13.028 44.9415 12.7751C45.1441 12.5222 45.3927 12.3211 45.6706 12.1854C45.9484 12.0498 46.249 11.9828 46.552 11.989H54.8702C55.519 12.0063 56.1405 12.2854 56.6209 12.7752C57.1013 13.265 57.4084 13.9327 57.486 14.6559L59.6508 38.819C59.6884 39.1565 59.6609 39.4991 59.5702 39.8236C59.4795 40.1481 59.3277 40.447 59.1251 40.6999C58.9225 40.9528 58.6739 41.1539 58.396 41.2895C58.1181 41.4251 57.8175 41.4921 57.5146 41.486Z" fill="white"/>
<path opacity="0.2" d="M71.7398 41.486H63.4216C62.773 41.4686 62.1518 41.1894 61.6717 40.6995C61.1917 40.2097 60.885 39.5421 60.808 38.819L58.641 14.6559C58.6041 14.3184 58.6322 13.9759 58.7233 13.6516C58.8144 13.3273 58.9664 13.0286 59.1691 12.7759C59.3718 12.5231 59.6204 12.3221 59.8982 12.1863C60.176 12.0506 60.4765 11.9833 60.7794 11.989H69.0954C69.7467 12.0042 70.3712 12.2833 70.8536 12.7748C71.3359 13.2664 71.6437 13.9371 71.72 14.6633L73.8848 38.8264C73.9214 39.1642 73.893 39.5068 73.8013 39.8312C73.7096 40.1555 73.5569 40.4539 73.3534 40.7061C73.15 40.9584 72.9006 41.1585 72.6222 41.2931C72.3438 41.4277 72.0428 41.4934 71.7398 41.486Z" fill="white"/>
<path opacity="0.1" d="M85.965 41.486H77.6468C76.9982 41.4686 76.377 41.1894 75.897 40.6995C75.4169 40.2097 75.1103 39.5421 75.0332 38.819L72.8662 14.6559C72.8293 14.3184 72.8574 13.9759 72.9485 13.6516C73.0396 13.3273 73.1916 13.0286 73.3943 12.7759C73.597 12.5231 73.8456 12.3221 74.1234 12.1863C74.4012 12.0506 74.7017 11.9833 75.0046 11.989H83.3206C83.9694 12.0063 84.5909 12.2854 85.0713 12.7752C85.5517 13.265 85.8588 13.9327 85.9364 14.6559L88.1012 38.819C88.1388 39.1565 88.1113 39.4991 88.0206 39.8236C87.9299 40.1481 87.7781 40.447 87.5755 40.6999C87.3729 40.9528 87.1243 41.1539 86.8464 41.2895C86.5685 41.4251 86.2679 41.4921 85.965 41.486Z" fill="white"/>
<path d="M53.9484 19.9083C53.9077 19.538 53.7493 19.1965 53.5024 18.9465C53.2555 18.6966 52.9366 18.555 52.6042 18.5477C52.4531 18.5476 52.3035 18.5811 52.1642 18.6465C52.0197 18.3683 51.8138 18.1366 51.5665 17.9736C51.3191 17.8105 51.0386 17.7217 50.7518 17.7155C50.4272 17.7089 50.1121 17.8383 49.868 18.0785C49.6239 18.3187 49.4684 18.6524 49.4318 19.0144C49.2767 19.0229 49.1249 19.0673 48.9859 19.1448C48.8469 19.2224 48.7237 19.3314 48.6241 19.465C48.5245 19.5986 48.4506 19.7539 48.4071 19.9212C48.3636 20.0885 48.3514 20.264 48.3714 20.4368C48.4117 20.8243 48.5756 21.1823 48.8328 21.4446C49.09 21.707 49.4231 21.856 49.7706 21.8641H53.8142C53.9292 21.8665 54.0434 21.8411 54.149 21.7897C54.2545 21.7382 54.349 21.6619 54.426 21.5659C54.503 21.4699 54.5607 21.3564 54.5952 21.2332C54.6297 21.11 54.6402 20.9798 54.626 20.8517C54.6026 20.6391 54.5268 20.4382 54.407 20.2715C54.2873 20.1048 54.1284 19.979 53.9484 19.9083Z" fill="white"/>
<path d="M39.9322 17.5031C39.8842 17.0711 39.6993 16.673 39.4112 16.3814C39.1232 16.0899 38.7513 15.9244 38.3636 15.9153C38.1839 15.9146 38.0059 15.9541 37.84 16.0314C37.6712 15.707 37.4311 15.4367 37.1425 15.2465C36.854 15.0562 36.5267 14.9524 36.1922 14.9448C35.8136 14.9378 35.4462 15.0891 35.1615 15.3694C34.8769 15.6496 34.6953 16.0388 34.6522 16.461C34.4714 16.472 34.2945 16.5246 34.1327 16.6156C33.9708 16.7066 33.8273 16.834 33.7111 16.9898C33.5949 17.1457 33.5086 17.3267 33.4574 17.5217C33.4062 17.7166 33.3913 17.9213 33.4136 18.1229C33.4603 18.5757 33.6517 18.9941 33.9523 19.3006C34.2528 19.6071 34.6422 19.7809 35.0482 19.7898H39.7716C39.9058 19.7927 40.0391 19.7632 40.1622 19.7032C40.2854 19.6433 40.3957 19.5544 40.4856 19.4425C40.5756 19.3305 40.643 19.1982 40.6834 19.0545C40.7238 18.9108 40.7362 18.759 40.7198 18.6094C40.6926 18.3613 40.6045 18.1264 40.4655 17.9311C40.3264 17.7358 40.1418 17.5876 39.9322 17.5031Z" fill="#0D214E"/>
<path d="M35.761 22.3604C35.7123 22.3603 35.6653 22.3401 35.629 22.3036C35.6097 22.2844 35.594 22.261 35.5828 22.2349C35.5716 22.2088 35.5651 22.1805 35.5637 22.1516C35.5622 22.1227 35.5659 22.0938 35.5745 22.0664C35.583 22.0391 35.5963 22.014 35.6136 21.9925L36.8412 20.4614C36.8767 20.4219 36.9244 20.3991 36.9744 20.3978C37.0244 20.3964 37.073 20.4166 37.1102 20.4542C37.1473 20.4919 37.1702 20.544 37.1742 20.6C37.1782 20.656 37.163 20.7115 37.1316 20.7553L35.9062 22.2863C35.8881 22.3095 35.8657 22.3281 35.8407 22.3409C35.8157 22.3537 35.7885 22.3603 35.761 22.3604Z" fill="#0D214E"/>
<path d="M37.1514 22.3604C37.1026 22.3603 37.0556 22.3401 37.0194 22.3036C37.0001 22.2844 36.9844 22.261 36.9732 22.2349C36.962 22.2088 36.9555 22.1805 36.954 22.1516C36.9526 22.1227 36.9563 22.0938 36.9648 22.0664C36.9734 22.0391 36.9867 22.014 37.004 21.9925L38.2316 20.4614C38.2671 20.4219 38.3148 20.3991 38.3648 20.3978C38.4148 20.3964 38.4634 20.4166 38.5005 20.4542C38.5377 20.4919 38.5606 20.544 38.5646 20.6C38.5686 20.656 38.5533 20.7115 38.522 20.7553L37.2966 22.2863C37.2784 22.3095 37.2561 22.3281 37.2311 22.3409C37.206 22.3537 37.1789 22.3603 37.1514 22.3604Z" fill="#0D214E"/>
<path d="M34.3706 22.3604C34.3219 22.3603 34.2749 22.3401 34.2386 22.3036C34.2193 22.2844 34.2036 22.261 34.1924 22.2349C34.1812 22.2088 34.1747 22.1805 34.1733 22.1516C34.1718 22.1227 34.1755 22.0938 34.1841 22.0664C34.1927 22.0391 34.2059 22.014 34.2232 21.9925L35.4508 20.4614C35.4863 20.4219 35.534 20.3991 35.584 20.3978C35.634 20.3964 35.6826 20.4166 35.7198 20.4542C35.7569 20.4919 35.7799 20.544 35.7838 20.6C35.7878 20.656 35.7726 20.7115 35.7412 20.7553L34.5158 22.2863C34.4977 22.3095 34.4753 22.3281 34.4503 22.3409C34.4253 22.3537 34.3981 22.3603 34.3706 22.3604Z" fill="#0D214E"/>
<g opacity="0.4">
<path opacity="0.4" d="M81.961 18.8786C81.9252 18.5595 81.7884 18.2655 81.5755 18.0502C81.3627 17.8348 81.088 17.7126 80.8016 17.7056C80.6688 17.7046 80.5372 17.7331 80.4144 17.7896C80.2898 17.5501 80.1124 17.3505 79.8994 17.21C79.6864 17.0695 79.4448 16.9927 79.1978 16.987C78.9169 16.9801 78.6438 17.0912 78.4321 17.2986C78.2205 17.506 78.0855 17.7948 78.0538 18.1081C77.9195 18.1157 77.788 18.1544 77.6677 18.2219C77.5474 18.2893 77.4409 18.3841 77.3549 18.5001C77.2689 18.6162 77.2053 18.751 77.168 18.896C77.1308 19.0411 77.1208 19.1932 77.1386 19.3428C77.1731 19.6777 77.3144 19.9872 77.5364 20.2142C77.7584 20.4411 78.0461 20.5702 78.3464 20.5775H81.84C81.939 20.5798 82.0374 20.5582 82.1283 20.5139C82.2192 20.4697 82.3006 20.4039 82.3668 20.3212C82.433 20.2384 82.4825 20.1406 82.5119 20.0344C82.5414 19.9282 82.5501 19.8161 82.5374 19.7058C82.5203 19.521 82.4572 19.3454 82.3552 19.1991C82.2533 19.0528 82.1166 18.9417 81.961 18.8786Z" fill="white"/>
<path opacity="0.4" d="M78.8788 22.4716C78.8429 22.4722 78.8082 22.4572 78.782 22.4296C78.7535 22.4008 78.7363 22.3604 78.7342 22.3173C78.7322 22.2743 78.7454 22.2321 78.771 22.2L79.651 21.1134C79.6637 21.0972 79.6791 21.084 79.6964 21.0745C79.7137 21.0649 79.7325 21.0593 79.7517 21.058C79.7709 21.0566 79.7901 21.0595 79.8083 21.0664C79.8265 21.0734 79.8433 21.0844 79.8578 21.0986C79.8722 21.1129 79.884 21.1302 79.8925 21.1496C79.901 21.169 79.906 21.1901 79.9072 21.2116C79.9084 21.2332 79.9059 21.2548 79.8997 21.2752C79.8934 21.2957 79.8837 21.3145 79.871 21.3307L78.991 22.4173C78.9771 22.4352 78.9598 22.4494 78.9404 22.4588C78.921 22.4682 78.8999 22.4726 78.8788 22.4716Z" fill="white"/>
<path opacity="0.4" d="M79.9062 22.4716C79.8884 22.4722 79.8706 22.4687 79.854 22.4615C79.8374 22.4543 79.8222 22.4435 79.8094 22.4296C79.7957 22.4147 79.7849 22.3968 79.7775 22.3771C79.7701 22.3574 79.7663 22.3362 79.7663 22.3148C79.7663 22.2934 79.7701 22.2722 79.7775 22.2525C79.7849 22.2328 79.7957 22.2149 79.8094 22.2L80.6894 21.1134C80.7021 21.0972 80.7175 21.084 80.7348 21.0745C80.7521 21.0649 80.7708 21.0593 80.79 21.058C80.8092 21.0566 80.8285 21.0595 80.8467 21.0664C80.8649 21.0734 80.8817 21.0844 80.8962 21.0986C80.9106 21.1129 80.9224 21.1302 80.9309 21.1496C80.9394 21.169 80.9444 21.1901 80.9456 21.2116C80.9468 21.2332 80.9443 21.2548 80.938 21.2752C80.9318 21.2957 80.9221 21.3145 80.9094 21.3307L80.0294 22.4173C80.0144 22.437 79.9953 22.4522 79.9738 22.4617C79.9523 22.4712 79.9291 22.4746 79.9062 22.4716Z" fill="white"/>
<path opacity="0.4" d="M77.8514 22.4716C77.8155 22.472 77.7809 22.457 77.7546 22.4296C77.7261 22.4008 77.7089 22.3604 77.7068 22.3174C77.7048 22.2743 77.718 22.2321 77.7436 22.2L78.6236 21.1135C78.6493 21.0814 78.6853 21.0622 78.7236 21.0599C78.762 21.0576 78.7996 21.0724 78.8282 21.1011C78.8426 21.1152 78.8543 21.1324 78.8626 21.1517C78.871 21.171 78.8758 21.1919 78.8769 21.2133C78.8779 21.2347 78.8751 21.2562 78.8686 21.2763C78.8621 21.2965 78.8521 21.315 78.8392 21.3308L77.9592 22.4173C77.9458 22.4346 77.9292 22.4484 77.9106 22.4578C77.892 22.4672 77.8718 22.4719 77.8514 22.4716Z" fill="white"/>
</g>
<g opacity="0.7">
<path opacity="0.7" d="M66.7744 20.0737C66.7924 20.2321 66.7798 20.3929 66.7375 20.5453C66.6952 20.6977 66.6242 20.8381 66.5292 20.9569C66.4342 21.0757 66.3175 21.1702 66.1871 21.2338C66.0567 21.2974 65.9156 21.3288 65.7734 21.3257C65.4688 21.3185 65.1769 21.1876 64.9517 20.9575C64.7264 20.7273 64.583 20.4134 64.548 20.0737C64.5299 19.9155 64.5425 19.7548 64.5848 19.6025C64.6271 19.4502 64.6982 19.31 64.7932 19.1914C64.8883 19.0728 65.005 18.9786 65.1354 18.9152C65.2658 18.8518 65.4069 18.8208 65.549 18.8242C65.8532 18.8314 66.1448 18.9619 66.37 19.1916C66.5952 19.4212 66.7389 19.7345 66.7744 20.0737Z" fill="white"/>
<path opacity="0.7" d="M65.879 22.6074C65.8553 22.6075 65.8325 22.5977 65.815 22.5798C65.7975 22.562 65.7866 22.5375 65.7844 22.5111L65.7316 21.9406C65.7291 21.9122 65.7367 21.8838 65.7528 21.8616C65.7688 21.8394 65.7921 21.8252 65.8174 21.8221C65.8427 21.8193 65.868 21.8279 65.8878 21.8459C65.9076 21.864 65.9202 21.89 65.923 21.9184L65.9736 22.4888C65.9748 22.5028 65.9735 22.5169 65.9698 22.5303C65.9662 22.5437 65.9602 22.5562 65.9522 22.5669C65.9442 22.5777 65.9344 22.5866 65.9234 22.5932C65.9123 22.5997 65.9002 22.6037 65.8878 22.6049L65.879 22.6074Z" fill="white"/>
<path opacity="0.7" d="M65.494 18.3279C65.4701 18.3274 65.4473 18.317 65.4299 18.2988C65.4124 18.2806 65.4015 18.2558 65.3994 18.2291L65.3488 17.6611C65.3463 17.6327 65.3539 17.6043 65.37 17.5821C65.3861 17.5599 65.4093 17.5457 65.4346 17.5426C65.447 17.5413 65.4596 17.5427 65.4715 17.5468C65.4834 17.5509 65.4945 17.5576 65.5042 17.5666C65.5138 17.5755 65.5217 17.5865 65.5275 17.599C65.5333 17.6114 65.5369 17.625 65.538 17.6389L65.5908 18.2094C65.592 18.2233 65.5907 18.2374 65.5871 18.2508C65.5834 18.2642 65.5774 18.2767 65.5694 18.2874C65.5615 18.2982 65.5516 18.3072 65.5406 18.3137C65.5295 18.3202 65.5174 18.3242 65.505 18.3254L65.494 18.3279Z" fill="white"/>
<path opacity="0.7" d="M64.02 20.1824H63.5118C63.4865 20.1818 63.4624 20.1701 63.4447 20.1497C63.4271 20.1294 63.4172 20.1022 63.4172 20.0738C63.4172 20.0456 63.4271 20.0186 63.4449 19.9987C63.4626 19.9788 63.4867 19.9676 63.5118 19.9676H64.02C64.0451 19.9676 64.0691 19.9788 64.0869 19.9987C64.1046 20.0186 64.1146 20.0456 64.1146 20.0738C64.1146 20.1022 64.1047 20.1294 64.087 20.1497C64.0693 20.1701 64.0453 20.1818 64.02 20.1824Z" fill="white"/>
<path opacity="0.7" d="M67.8216 20.1824H67.32C67.2947 20.1818 67.2706 20.1701 67.2529 20.1497C67.2353 20.1294 67.2254 20.1022 67.2254 20.0738C67.2254 20.0456 67.2353 20.0186 67.2531 19.9987C67.2708 19.9788 67.2949 19.9676 67.32 19.9676H67.8282C67.8533 19.9676 67.8773 19.9788 67.8951 19.9987C67.9128 20.0186 67.9228 20.0456 67.9228 20.0738C67.9228 20.0885 67.9201 20.103 67.915 20.1165C67.9099 20.13 67.9023 20.1422 67.8929 20.1524C67.8834 20.1626 67.8722 20.1705 67.86 20.1756C67.8477 20.1808 67.8346 20.1831 67.8216 20.1824Z" fill="white"/>
<path opacity="0.7" d="M67.342 21.8962C67.3185 21.8957 67.296 21.8861 67.2782 21.869L66.8822 21.4665C66.8652 21.4466 66.8556 21.4203 66.8553 21.3928C66.855 21.3653 66.8639 21.3387 66.8804 21.3183C66.8969 21.298 66.9196 21.2854 66.944 21.2831C66.9684 21.2808 66.9927 21.289 67.012 21.306L67.4058 21.7085C67.4238 21.7289 67.4339 21.7564 67.4339 21.7851C67.4339 21.8137 67.4238 21.8413 67.4058 21.8616C67.3893 21.882 67.3664 21.8944 67.342 21.8962Z" fill="white"/>
<path opacity="0.7" d="M64.3742 18.8712C64.3504 18.8704 64.3277 18.8599 64.3104 18.8415L63.9166 18.439C63.9073 18.4296 63.8998 18.4183 63.8945 18.4056C63.8892 18.3929 63.8861 18.3792 63.8855 18.3652C63.8849 18.3512 63.8867 18.3373 63.8909 18.3241C63.8951 18.3109 63.9016 18.2988 63.91 18.2884C63.9184 18.278 63.9285 18.2696 63.9398 18.2636C63.951 18.2576 63.9633 18.2542 63.9757 18.2535C63.9882 18.2528 64.0006 18.2549 64.0124 18.2596C64.0241 18.2643 64.0349 18.2716 64.0442 18.281L64.4402 18.6835C64.4543 18.6984 64.464 18.7177 64.4682 18.7389C64.4724 18.7601 64.4709 18.7822 64.4638 18.8024C64.4567 18.8226 64.4443 18.84 64.4284 18.8522C64.4124 18.8645 64.3935 18.8711 64.3742 18.8712Z" fill="white"/>
<path opacity="0.7" d="M64.2884 21.8962C64.2649 21.8961 64.2422 21.8865 64.2246 21.869C64.2157 21.8592 64.2087 21.8474 64.2039 21.8345C64.1991 21.8216 64.1967 21.8077 64.1967 21.7937C64.1967 21.7797 64.1991 21.7658 64.2039 21.7529C64.2087 21.74 64.2157 21.7283 64.2246 21.7184L64.548 21.3159C64.5568 21.306 64.5672 21.2981 64.5787 21.2927C64.5903 21.2873 64.6026 21.2845 64.6151 21.2845C64.6275 21.2845 64.6399 21.2873 64.6514 21.2927C64.6629 21.2981 64.6734 21.306 64.6822 21.3159C64.7002 21.3362 64.7103 21.3638 64.7103 21.3924C64.7103 21.4211 64.7002 21.4486 64.6822 21.469L64.3588 21.8715C64.339 21.8896 64.3138 21.8984 64.2884 21.8962Z" fill="white"/>
<path opacity="0.7" d="M66.7128 18.8712C66.7009 18.8713 66.6891 18.8688 66.6782 18.8637C66.6672 18.8586 66.6573 18.851 66.649 18.8415C66.6401 18.8317 66.6331 18.8199 66.6283 18.807C66.6235 18.7941 66.6211 18.7802 66.6211 18.7662C66.6211 18.7522 66.6235 18.7384 66.6283 18.7254C66.6331 18.7125 66.6401 18.7008 66.649 18.6909L66.9724 18.2884C66.9902 18.2715 67.0128 18.2625 67.0361 18.2628C67.0594 18.2632 67.0818 18.273 67.0992 18.2904C67.1166 18.3078 67.1278 18.3317 67.1308 18.3576C67.1337 18.3836 67.1283 18.4098 67.1154 18.4316L66.792 18.8341C66.7824 18.847 66.7702 18.8571 66.7564 18.8636C66.7426 18.87 66.7277 18.8726 66.7128 18.8712Z" fill="white"/>
</g>
<path d="M25.1438 19.7552C25.1089 19.4401 24.9741 19.1496 24.764 18.9369C24.554 18.7242 24.2826 18.6035 23.9998 18.5971C23.869 18.5971 23.7396 18.6264 23.6192 18.6835C23.4964 18.4467 23.3215 18.2494 23.1111 18.1106C22.9007 17.9717 22.662 17.8961 22.418 17.8908C22.1405 17.881 21.8699 17.9893 21.6606 18.194C21.4513 18.3987 21.3187 18.6847 21.2894 18.9946C21.1574 19.0023 21.0282 19.0405 20.9099 19.1067C20.7916 19.1729 20.6867 19.2659 20.6018 19.3797C20.517 19.4935 20.4539 19.6257 20.4167 19.768C20.3794 19.9104 20.3687 20.0599 20.3852 20.2071C20.4197 20.5371 20.5594 20.842 20.7786 21.0653C20.9978 21.2887 21.2816 21.4154 21.5776 21.4221H25.0206C25.1186 21.4244 25.2159 21.4029 25.3058 21.3592C25.3958 21.3155 25.4763 21.2505 25.5418 21.1687C25.6074 21.0869 25.6565 20.9902 25.6857 20.8852C25.715 20.7802 25.7237 20.6694 25.7114 20.5602C25.6916 20.3805 25.6282 20.2104 25.5281 20.0685C25.428 19.9265 25.295 19.8181 25.1438 19.7552Z" fill="white"/>
<path d="M21.714 17.6834C21.5413 17.779 21.3886 17.9144 21.2658 18.0808C21.143 18.2472 21.0528 18.4408 21.0012 18.6489C20.7686 18.7093 20.5572 18.846 20.394 19.0415C20.1852 18.8498 20.051 18.5744 20.02 18.2736C20.0048 18.1387 20.0156 18.0018 20.0518 17.8721C20.088 17.7425 20.1487 17.623 20.2297 17.522C20.3107 17.421 20.4101 17.3408 20.5212 17.2868C20.6324 17.2329 20.7525 17.2064 20.8736 17.2093C21.0367 17.2104 21.1974 17.2538 21.3432 17.336C21.4889 17.4182 21.6158 17.5371 21.714 17.6834Z" fill="white"/>
<path d="M20.834 16.7919C20.8138 16.792 20.7944 16.7838 20.7793 16.7687C20.7643 16.7537 20.7548 16.7329 20.7526 16.7104L20.7108 16.2165C20.7096 16.2047 20.7105 16.1926 20.7135 16.1812C20.7165 16.1697 20.7216 16.1591 20.7284 16.1498C20.7352 16.1406 20.7435 16.133 20.753 16.1275C20.7624 16.122 20.7728 16.1187 20.7834 16.1178C20.794 16.1164 20.8047 16.1174 20.8149 16.1208C20.8251 16.1242 20.8346 16.1299 20.8428 16.1375C20.851 16.1451 20.8578 16.1545 20.8627 16.1651C20.8676 16.1757 20.8706 16.1873 20.8714 16.1993L20.9154 16.6931C20.9166 16.7051 20.9157 16.7173 20.9127 16.7289C20.9097 16.7405 20.9047 16.7514 20.8979 16.7608C20.8912 16.7702 20.8828 16.778 20.8734 16.7838C20.8639 16.7896 20.8535 16.7932 20.8428 16.7944L20.834 16.7919Z" fill="white"/>
<path d="M19.58 18.3625H19.14C19.1293 18.3625 19.1187 18.3601 19.1088 18.3555C19.0989 18.3509 19.09 18.3442 19.0824 18.3357C19.0748 18.3272 19.0689 18.3171 19.0648 18.3061C19.0607 18.295 19.0586 18.2831 19.0586 18.2711C19.0583 18.259 19.0602 18.247 19.0641 18.2357C19.0681 18.2245 19.0741 18.2143 19.0817 18.2057C19.0894 18.1972 19.0984 18.1905 19.1085 18.186C19.1185 18.1815 19.1292 18.1794 19.14 18.1797H19.58C19.6016 18.1797 19.6223 18.1893 19.6375 18.2065C19.6528 18.2236 19.6614 18.2469 19.6614 18.2711C19.6608 18.2951 19.6521 18.318 19.6369 18.335C19.6218 18.352 19.6014 18.3618 19.58 18.3625Z" fill="white"/>
<path d="M19.8814 17.2438C19.8613 17.2441 19.8417 17.2362 19.8264 17.2216L19.4898 16.8784C19.4737 16.862 19.4641 16.8391 19.4631 16.8148C19.4621 16.7905 19.4697 16.7667 19.4843 16.7487C19.4989 16.7307 19.5192 16.72 19.5409 16.7188C19.5625 16.7176 19.5837 16.7262 19.5998 16.7426L19.9364 17.0858C19.9514 17.1029 19.9599 17.126 19.9599 17.15C19.9599 17.174 19.9514 17.1971 19.9364 17.2142C19.9294 17.223 19.921 17.2301 19.9115 17.2352C19.9021 17.2403 19.8918 17.2432 19.8814 17.2438Z" fill="white"/>
<path d="M19.8 19.8219C19.7898 19.8221 19.7797 19.82 19.7703 19.8158C19.7608 19.8115 19.7522 19.8052 19.745 19.7972C19.7299 19.7801 19.7215 19.7571 19.7215 19.733C19.7215 19.709 19.7299 19.6859 19.745 19.6688L20.02 19.3256C20.0358 19.3091 20.0567 19.2999 20.0783 19.2999C20.0999 19.2999 20.1207 19.3091 20.1366 19.3256C20.1518 19.3431 20.1603 19.3666 20.1603 19.391C20.1603 19.4155 20.1518 19.4389 20.1366 19.4564L19.8616 19.7997C19.8533 19.8081 19.8435 19.8144 19.8329 19.8182C19.8223 19.822 19.8111 19.8233 19.8 19.8219Z" fill="white"/>
<path d="M21.8702 17.2438C21.8544 17.2444 21.8389 17.2396 21.8256 17.2302C21.8122 17.2208 21.8017 17.2071 21.7953 17.1909C21.7889 17.1748 21.787 17.1568 21.7898 17.1394C21.7925 17.122 21.7998 17.1059 21.8108 17.0932L22.0858 16.7499C22.101 16.733 22.1216 16.7236 22.143 16.7236C22.1644 16.7236 22.185 16.733 22.2002 16.7499C22.2147 16.7673 22.2228 16.7903 22.2228 16.8141C22.2228 16.838 22.2147 16.8609 22.2002 16.8783L21.9252 17.2216C21.9097 17.236 21.8903 17.2439 21.8702 17.2438Z" fill="white"/>
<path d="M28.7188 36.4755H20.1916C20.0781 36.4723 19.9694 36.4234 19.8854 36.3377C19.8014 36.252 19.7477 36.1353 19.734 36.0088L19.6482 35.0482C19.6419 34.9893 19.6469 34.9296 19.6629 34.873C19.6789 34.8165 19.7056 34.7645 19.741 34.7205C19.7764 34.6765 19.8199 34.6415 19.8684 34.618C19.9169 34.5944 19.9693 34.5828 20.0222 34.5839H28.5494C28.6623 34.5871 28.7704 34.6358 28.854 34.721C28.9376 34.8062 28.9911 34.9224 29.0048 35.0482L29.0906 36.0088C29.0972 36.0677 29.0925 36.1274 29.0767 36.1841C29.061 36.2408 29.0346 36.293 28.9994 36.3372C28.9642 36.3814 28.9209 36.4167 28.8725 36.4405C28.824 36.4644 28.7716 36.4763 28.7188 36.4755Z" fill="white"/>
<path d="M43.3972 36.8978H34.0384C33.914 36.8946 33.7947 36.8412 33.7026 36.7473C33.6105 36.6534 33.5516 36.5253 33.5368 36.3866L33.4422 35.3322C33.4349 35.2675 33.4401 35.2018 33.4575 35.1396C33.4748 35.0774 33.5039 35.0201 33.5427 34.9716C33.5815 34.9231 33.6292 34.8846 33.6824 34.8586C33.7357 34.8326 33.7933 34.8198 33.8514 34.821H43.2124C43.3368 34.8242 43.456 34.8776 43.5482 34.9715C43.6403 35.0654 43.6992 35.1935 43.714 35.3322L43.8086 36.3866C43.8155 36.4514 43.81 36.5171 43.7924 36.5793C43.7748 36.6416 43.7455 36.6988 43.7065 36.7472C43.6675 36.7957 43.6197 36.8342 43.5664 36.8601C43.513 36.8861 43.4553 36.8989 43.3972 36.8978Z" fill="#0D214E"/>
<path d="M57.1692 36.4755H48.642C48.5287 36.4722 48.4204 36.4232 48.3367 36.3375C48.2531 36.2518 48.1998 36.1351 48.1866 36.0088L48.1008 35.0482C48.0941 34.9894 48.0988 34.9297 48.1146 34.8732C48.1303 34.8167 48.1567 34.7646 48.192 34.7206C48.2273 34.6765 48.2706 34.6415 48.319 34.6179C48.3674 34.5944 48.4198 34.5828 48.4726 34.5839H56.9998C57.1128 34.5866 57.2212 34.6351 57.3048 34.7204C57.3885 34.8058 57.4419 34.9222 57.4552 35.0482L57.5432 36.0088C57.5494 36.0678 57.5444 36.1276 57.5284 36.1843C57.5124 36.2409 57.4858 36.2931 57.4504 36.3373C57.415 36.3815 57.3716 36.4167 57.3231 36.4405C57.2746 36.4643 57.2221 36.4763 57.1692 36.4755Z" fill="white"/>
<path opacity="0.7" d="M71.3944 36.4755H62.8672C62.754 36.4722 62.6456 36.4232 62.5619 36.3375C62.4783 36.2518 62.425 36.1351 62.4118 36.0088L62.326 35.0482C62.3193 34.9894 62.324 34.9297 62.3398 34.8732C62.3555 34.8167 62.382 34.7646 62.4172 34.7206C62.4525 34.6765 62.4958 34.6415 62.5442 34.6179C62.5927 34.5944 62.645 34.5828 62.6978 34.5839H71.225C71.338 34.5866 71.4464 34.6351 71.5301 34.7204C71.6138 34.8058 71.6671 34.9222 71.6804 35.0482L71.7684 36.0088C71.7747 36.0678 71.7696 36.1276 71.7536 36.1843C71.7376 36.2409 71.711 36.2931 71.6756 36.3373C71.6402 36.3815 71.5968 36.4167 71.5483 36.4405C71.4998 36.4643 71.4473 36.4763 71.3944 36.4755Z" fill="white"/>
<path opacity="0.4" d="M85.6196 36.4755H77.0946C76.981 36.4728 76.8721 36.4241 76.788 36.3383C76.7038 36.2525 76.6502 36.1355 76.637 36.0088L76.5512 35.0482C76.5445 34.9894 76.5492 34.9297 76.565 34.8732C76.5807 34.8167 76.6071 34.7646 76.6424 34.7206C76.6777 34.6765 76.721 34.6415 76.7694 34.6179C76.8178 34.5944 76.8702 34.5828 76.923 34.5839H85.4502C85.5633 34.5871 85.6717 34.6356 85.7557 34.7208C85.8396 34.806 85.8936 34.9222 85.9078 35.0482L85.9936 36.0088C85.9998 36.0678 85.9948 36.1276 85.9788 36.1843C85.9628 36.2409 85.9362 36.2931 85.9008 36.3373C85.8654 36.3815 85.822 36.4167 85.7735 36.4405C85.725 36.4643 85.6725 36.4763 85.6196 36.4755Z" fill="white"/>
<path d="M80.96 27.8129C81.576 28.9612 82.1326 30.107 82.6628 31.2948C83.1999 32.4925 83.6781 33.7225 84.095 34.9791C84.1478 35.1396 84.1984 35.3026 84.2446 35.473L84.3172 35.7199L84.3546 35.8434L84.381 35.9422C84.381 35.9842 84.4008 36.0262 84.4096 36.0681C84.502 36.6007 84.4593 37.1517 84.2864 37.6584C84.0426 38.3746 83.6972 39.0417 83.2634 39.634C82.5035 40.694 81.6327 41.6475 80.6696 42.4738L79.8402 41.5107C80.5248 40.5318 81.1551 39.5067 81.7278 38.4412C81.8572 38.1924 81.9747 37.9361 82.0798 37.6732C82.1745 37.4486 82.2482 37.2136 82.2998 36.9719C82.3416 36.7694 82.3218 36.6089 82.2998 36.6435V36.6262L82.2602 36.5225L82.1854 36.3126C82.1348 36.1743 82.082 36.0336 82.0248 35.8928C81.5848 34.7692 81.0656 33.6407 80.5332 32.5221C80.0008 31.4034 79.4332 30.2774 78.892 29.1834L80.96 27.8129Z" fill="#FF8B7B"/>
<path d="M80.1548 41.0785L78.903 42.3132L80.6454 43.5479C80.6454 43.5479 81.158 42.6145 81.136 41.7502L80.1548 41.0785Z" fill="#FF8B7B"/>
<path d="M78.4454 44.1603L79.7786 45.1234L80.6454 43.5553L78.903 42.3206L78.4454 44.1603Z" fill="#FF8B7B"/>
<path d="M73.6318 19.7775C73.6076 19.9182 73.5196 20.0244 73.4382 20.0022C73.3568 19.98 73.3084 19.854 73.3326 19.7133C73.3568 19.5725 73.4448 19.4663 73.5262 19.4885C73.6076 19.5108 73.656 19.6367 73.6318 19.7775Z" fill="#263238"/>
<path d="M73.5328 20.0219C73.3081 20.4214 73.0349 20.7838 72.721 21.0986C72.795 21.1869 72.8853 21.2559 72.9857 21.3007C73.0861 21.3456 73.194 21.3651 73.3018 21.3579L73.5328 20.0219Z" fill="#FF5652"/>
<path d="M74.228 19.0934C74.2468 19.0936 74.2649 19.0857 74.2786 19.0712C74.2927 19.055 74.3006 19.0333 74.3006 19.0107C74.3006 18.9881 74.2927 18.9664 74.2786 18.9502C74.1989 18.8496 74.0985 18.7723 73.9862 18.725C73.8739 18.6777 73.753 18.6617 73.634 18.6786C73.6244 18.6803 73.6152 18.6843 73.607 18.6901C73.5988 18.696 73.5917 18.7036 73.5861 18.7126C73.5806 18.7216 73.5767 18.7317 73.5747 18.7424C73.5727 18.7531 73.5727 18.7642 73.5746 18.7749C73.5778 18.7968 73.5887 18.8164 73.6048 18.8293C73.6209 18.8423 73.6409 18.8476 73.6604 18.844C73.7547 18.8332 73.85 18.8477 73.9384 18.8864C74.0267 18.925 74.1056 18.9867 74.1686 19.0663C74.1763 19.0752 74.1855 19.0822 74.1957 19.0869C74.206 19.0916 74.217 19.0938 74.228 19.0934Z" fill="#263238"/>
<path d="M76.648 21.4838C76.428 22.7901 76.1926 25.1879 77.0066 26.0547C77.0066 26.0547 76.6876 27.3783 74.5272 27.3783C72.149 27.3783 73.4822 26.2572 73.4822 26.2572C74.4898 25.2694 74.7428 24.2471 74.5184 23.2346L76.648 21.4838Z" fill="#FF8B7B"/>
<path d="M77.2728 26.4498C77.3938 25.9559 77.5258 25.3978 77.143 25.2669C76.7228 25.1237 74.4876 25.1681 73.7506 25.6003C73.0136 26.0324 73.3106 26.9708 73.3106 26.9708L77.2728 26.4498Z" fill="#263238"/>
<path d="M84.9904 86.5995C84.9263 86.6254 84.8582 86.6365 84.7902 86.6323C84.7221 86.628 84.6556 86.6085 84.5944 86.5748C84.5711 86.5499 84.5553 86.5176 84.549 86.4822C84.5427 86.4469 84.5463 86.4102 84.5592 86.3772C84.5662 86.3499 84.5785 86.3247 84.5953 86.3033C84.612 86.282 84.6327 86.265 84.656 86.2538C84.876 86.1377 85.3644 86.3649 85.3842 86.3748C85.3908 86.3781 85.3963 86.3835 85.4002 86.3902C85.4042 86.397 85.4062 86.405 85.4062 86.413C85.4062 86.4211 85.4042 86.429 85.4002 86.4358C85.3963 86.4426 85.3908 86.448 85.3842 86.4513C85.258 86.5163 85.126 86.566 84.9904 86.5995ZM84.7308 86.313L84.6868 86.3303C84.6733 86.337 84.6611 86.3468 84.6513 86.3592C84.6414 86.3715 84.634 86.3861 84.6296 86.4019C84.6098 86.4785 84.6296 86.5032 84.6428 86.5106C84.7286 86.5921 85.0476 86.5106 85.2698 86.4167C85.0995 86.3366 84.9152 86.3011 84.7308 86.313Z" fill="#0D214E"/>
<path d="M85.3776 86.4538H85.36C85.1796 86.3945 84.7946 86.0883 84.7902 85.8858C84.7901 85.8541 84.7996 85.8234 84.8172 85.7987C84.8348 85.774 84.8595 85.7568 84.887 85.75C84.9142 85.7389 84.9432 85.7345 84.9721 85.737C85.0009 85.7396 85.0289 85.7491 85.0542 85.7648C85.2742 85.8858 85.3996 86.3797 85.4062 86.4019C85.4079 86.4074 85.4085 86.4133 85.4079 86.4191C85.4073 86.4249 85.4056 86.4304 85.4028 86.4354C85.4001 86.4404 85.3964 86.4446 85.3921 86.4477C85.3877 86.4509 85.3828 86.453 85.3776 86.4538ZM84.9376 85.8241H84.92C84.8738 85.8413 84.8738 85.8685 84.8738 85.8784C84.8738 85.9994 85.1312 86.2389 85.3138 86.3377C85.2617 86.145 85.1608 85.9734 85.0234 85.8438C85.0083 85.8328 84.9913 85.8253 84.9735 85.8219C84.9558 85.8185 84.9375 85.8192 84.92 85.8241H84.9376Z" fill="#0D214E"/>
<path d="M73.26 87.4736C73.0554 87.4736 72.8596 87.4415 72.7936 87.3378C72.7764 87.3113 72.7672 87.2793 72.7672 87.2465C72.7672 87.2136 72.7764 87.1816 72.7936 87.1551C72.8062 87.1302 72.8232 87.1086 72.8437 87.0916C72.8642 87.0746 72.8876 87.0626 72.9124 87.0563C73.1786 86.9748 73.733 87.3304 73.7572 87.3452C73.7637 87.3499 73.7688 87.3566 73.7719 87.3645C73.775 87.3724 73.776 87.3812 73.7748 87.3897C73.7737 87.398 73.7703 87.4057 73.7652 87.4119C73.7601 87.4181 73.7535 87.4224 73.7462 87.4242C73.5857 87.4562 73.423 87.4728 73.26 87.4736ZM73.007 87.1279C72.9829 87.124 72.9585 87.124 72.9344 87.1279C72.9191 87.131 72.9046 87.138 72.8921 87.1482C72.8795 87.1585 72.8692 87.1718 72.8618 87.1872C72.8354 87.239 72.8442 87.2637 72.8618 87.2786C72.9366 87.3946 73.3392 87.3971 73.634 87.3502C73.4418 87.2322 73.2312 87.1567 73.0136 87.1279H73.007Z" fill="#0D214E"/>
<path d="M73.7462 87.4169H73.7308C73.5394 87.3206 73.1588 86.9353 73.1874 86.7328C73.1874 86.6859 73.2248 86.6267 73.3282 86.6143C73.3657 86.6103 73.4035 86.6149 73.4394 86.6276C73.4753 86.6403 73.5086 86.661 73.5372 86.6884C73.6825 86.8818 73.7689 87.1224 73.7836 87.3749C73.7845 87.3824 73.7835 87.3901 73.7808 87.397C73.7781 87.404 73.7737 87.41 73.7682 87.4144C73.7613 87.4177 73.7536 87.4185 73.7462 87.4169ZM73.359 86.6933H73.337C73.2688 86.6933 73.2644 86.7328 73.2622 86.7427C73.2446 86.8637 73.5042 87.1674 73.7022 87.2983C73.6819 87.0935 73.605 86.901 73.4822 86.7477C73.4472 86.7165 73.4037 86.7 73.359 86.7007V86.6933Z" fill="#0D214E"/>
<path d="M75.4952 87.3822H73.9046L73.7462 83.2485H75.3368L75.4952 87.3822Z" fill="#FF8B7B"/>
<path d="M87.1508 85.9797L85.5954 86.3575L84.0356 82.5077L85.591 82.1299L87.1508 85.9797Z" fill="#FF8B7B"/>
<path d="M85.448 86.1821L87.1926 85.7598C87.2235 85.752 87.2559 85.7563 87.2843 85.7721C87.3127 85.7878 87.3355 85.814 87.3488 85.8463L87.9538 87.3279C87.9684 87.3639 87.9756 87.4031 87.9748 87.4426C87.974 87.4821 87.9652 87.5209 87.9491 87.5561C87.933 87.5913 87.91 87.6219 87.8819 87.6457C87.8537 87.6694 87.8212 87.6858 87.7866 87.6934C87.175 87.8292 86.8714 87.8613 86.1036 88.0465C85.6306 88.1626 84.5636 88.454 83.9036 88.612C83.2436 88.77 83.0236 88.0663 83.281 87.9378C84.4206 87.3526 84.898 86.8365 85.206 86.3574C85.2645 86.2673 85.3508 86.2048 85.448 86.1821Z" fill="#263238"/>
<path d="M73.92 87.1699H75.6558C75.6874 87.1695 75.7182 87.1814 75.743 87.2034C75.7678 87.2254 75.7852 87.2563 75.7922 87.2909L76.1068 88.8787C76.1147 88.9163 76.115 88.9554 76.1077 88.9932C76.1003 89.0309 76.0856 89.0663 76.0645 89.0969C76.0434 89.1274 76.0165 89.1523 75.9858 89.1696C75.955 89.187 75.9212 89.1964 75.8868 89.1972C75.2598 89.1849 74.3468 89.1429 73.568 89.1429C72.6462 89.1429 72.6616 89.1997 71.588 89.1997C70.928 89.1997 70.7542 88.4589 71.027 88.3922C72.27 88.086 72.4746 88.0539 73.5504 87.3082C73.6606 87.2263 73.7881 87.1786 73.92 87.1699Z" fill="#263238"/>
<path d="M72.2832 29.8131C71.676 31.075 71.038 32.2825 70.3538 33.4777C69.6673 34.6936 68.9204 35.8652 68.1164 36.9867C68.0152 37.13 67.8964 37.2707 67.7908 37.4115L67.6258 37.6263L67.43 37.851C67.3002 37.9992 67.1814 38.1177 67.0538 38.2486L66.6842 38.6091C66.1914 39.0758 65.6942 39.5105 65.1926 39.9377C64.1872 40.7896 63.1598 41.5897 62.0972 42.3478L61.347 41.3032C62.2138 40.3155 63.107 39.3277 63.987 38.3573C64.427 37.8634 64.867 37.3892 65.2806 36.9077C65.4852 36.6608 65.692 36.4138 65.8636 36.199L65.9824 36.0385L66.1122 35.8483C66.198 35.7175 66.286 35.6014 66.3696 35.4582C67.0538 34.3865 67.6896 33.2234 68.3276 32.0529C68.9656 30.8824 69.5794 29.6872 70.18 28.5093L72.2832 29.8131Z" fill="#FF8B7B"/>
<path d="M80.344 26.4597C81.84 26.8449 83.5868 32.8431 83.5868 32.8431L81.037 34.7149C81.037 34.7149 79.4156 31.9195 78.573 29.9267C77.6886 27.8475 78.8194 26.0695 80.344 26.4597Z" fill="#0D214E"/>
<g opacity="0.7">
<path opacity="0.7" d="M80.344 26.4597C81.84 26.8449 83.5868 32.8431 83.5868 32.8431L81.037 34.7149C81.037 34.7149 79.4156 31.9195 78.573 29.9267C77.6886 27.8475 78.8194 26.0695 80.344 26.4597Z" fill="white"/>
</g>
<path opacity="0.5" d="M79.497 29.539C79.3672 29.3488 79.013 29.7859 78.7468 30.3366C79.1164 31.1564 79.5828 32.0652 79.9964 32.8406C80.2538 31.3417 79.8336 30.0205 79.497 29.539Z" fill="#0D214E"/>
<path d="M71.434 26.5535C71.434 26.5535 69.7422 28.6994 71.3394 41.9798H79.8446C79.904 40.5155 79.0834 33.3665 80.344 26.4596C79.4031 26.2563 78.4514 26.1218 77.495 26.0571C76.2912 25.978 75.0842 25.978 73.8804 26.0571C73.0546 26.1505 72.2367 26.3165 71.434 26.5535Z" fill="#0D214E"/>
<path opacity="0.7" d="M71.434 26.5535C71.434 26.5535 69.7422 28.6994 71.3394 41.9798H79.8446C79.904 40.5155 79.0834 33.3665 80.344 26.4596C79.4031 26.2563 78.4514 26.1218 77.495 26.0571C76.2912 25.978 75.0842 25.978 73.8804 26.0571C73.0546 26.1505 72.2367 26.3165 71.434 26.5535Z" fill="white"/>
<path opacity="0.5" d="M70.7146 30.2057C70.627 31.7929 70.627 33.3846 70.7146 34.9717C71.797 34.1914 72.7914 32.1146 72.6946 30.7416L70.7146 30.2057Z" fill="#0D214E"/>
<path d="M39.1556 26.8152L38.8982 27.2844L36.8698 25.7015L37.0018 25.4645L39.1556 26.8152Z" fill="#0D214E"/>
<path d="M39.2238 26.6943L38.83 27.4055L58.7312 42.6837L60.2734 39.8883L39.2238 26.6943Z" fill="#263238"/>
<path opacity="0.2" d="M39.1512 26.8276L38.9048 27.2721L59.0172 42.1626L59.9852 40.4093L39.1512 26.8276Z" fill="white"/>
<path d="M39.0676 26.9758L38.9862 27.1239L59.3406 41.5773L59.6618 40.9921L39.0676 26.9758Z" fill="#263238"/>
<path d="M60.577 45.2419C60.3603 45.2421 60.1477 45.1745 59.9632 45.0469L60.1062 44.7999C60.2177 44.8756 60.3422 44.9238 60.4716 44.9413C60.6009 44.9587 60.7321 44.9451 60.8564 44.9012C61.1283 44.8047 61.3606 44.6025 61.5115 44.3308C61.6623 44.0592 61.7218 43.736 61.6792 43.4195C61.6587 43.2754 61.611 43.1378 61.5393 43.016C61.4676 42.8942 61.3735 42.791 61.2634 42.7133L59.4308 41.4366L59.5738 41.1773L61.4064 42.454C61.549 42.5541 61.6711 42.6871 61.7644 42.8442C61.8577 43.0013 61.9201 43.1789 61.9476 43.3652C62.0009 43.7542 61.9286 44.1518 61.7439 44.4864C61.5592 44.821 61.2741 45.0705 60.94 45.1901C60.8219 45.2273 60.6996 45.2448 60.577 45.2419Z" fill="#263238"/>
<path d="M73.766 27.7388C74.602 30.0132 69.542 35.6928 69.542 35.6928L66.924 33.4703C66.924 33.4703 68.7346 30.4922 69.4804 28.4476C70.4 25.9288 73.128 26.0078 73.766 27.7388Z" fill="#0D214E"/>
<path opacity="0.7" d="M73.766 27.7388C74.602 30.0132 69.542 35.6928 69.542 35.6928L66.924 33.4703C66.924 33.4703 68.7346 30.4922 69.4804 28.4476C70.4 25.9288 73.128 26.0078 73.766 27.7388Z" fill="white"/>
<path d="M67.76 32.6455C68.3122 33.2505 69.5398 34.5642 70.103 34.9395C70.143 34.9673 70.1722 35.0108 70.1848 35.0616C70.1974 35.1124 70.1926 35.1667 70.1712 35.2136C69.9842 35.6063 69.5596 36.1817 69.278 36.2286C68.9458 36.2854 66.3806 34.3839 66.3344 33.9938C66.3058 33.7295 66.847 33.0554 67.1968 32.6529C67.2332 32.6106 67.2767 32.5768 67.3248 32.5535C67.3729 32.5302 67.4246 32.5179 67.477 32.5172C67.5294 32.5165 67.5814 32.5275 67.63 32.5495C67.6785 32.5715 67.7227 32.6041 67.76 32.6455Z" fill="#263238"/>
<path d="M80.5398 33.4826C81.2284 33.0949 82.7398 32.2208 83.2348 31.7541C83.2713 31.7205 83.3178 31.7039 83.3648 31.7075C83.4118 31.7112 83.4558 31.7349 83.4878 31.7738C83.7584 32.0998 84.1038 32.7369 84.0532 33.0505C83.9916 33.4234 81.5518 35.5199 81.2108 35.4458C80.9776 35.3915 80.5882 34.5963 80.3616 34.0951C80.3367 34.0419 80.3216 33.9836 80.3171 33.9238C80.3127 33.8639 80.3189 33.8037 80.3355 33.7466C80.3521 33.6895 80.3788 33.6367 80.4139 33.5914C80.4489 33.5461 80.4918 33.5091 80.5398 33.4826Z" fill="#263238"/>
<path d="M61.8662 40.8908L60.2646 41.4538L60.9906 43.2269C60.9906 43.2269 62.3832 43.0194 62.6582 41.7452L61.8662 40.8908Z" fill="#FF8B7B"/>
<path d="M59.5364 42.3972L60.1194 43.5701L60.9906 43.2269L60.2646 41.4539L59.5364 42.3972Z" fill="#FF8B7B"/>
<path opacity="0.2" d="M73.7462 83.2485L73.8276 85.3796H75.4204L75.339 83.2485H73.7462Z" fill="black"/>
<path opacity="0.2" d="M85.591 82.1323L84.0356 82.5101L84.8408 84.4931L86.3962 84.1153L85.591 82.1323Z" fill="black"/>
<path d="M77.88 20.3899C77.4862 22.1184 77.3322 23.1334 76.3994 23.847C74.9914 24.9311 73.2204 23.7211 73.15 21.9085C73.0884 20.2763 73.744 17.7451 75.3764 17.3846C75.7367 17.3017 76.11 17.324 76.4604 17.4493C76.8109 17.5745 77.1268 17.7987 77.378 18.1002C77.6292 18.4018 77.8073 18.7706 77.8952 19.1715C77.9831 19.5724 77.9779 19.9919 77.88 20.3899Z" fill="#FF8B7B"/>
<path d="M74.3028 20.8023C74.1772 20.5235 74.135 20.2066 74.1825 19.8987C74.2301 19.5909 74.3649 19.3085 74.5668 19.0934C74.0784 18.8094 73.6274 17.834 74.0982 17.271C72.8332 16.9426 73.5328 15.4683 75.4974 15.6116C77.462 15.7548 75.9242 16.6858 75.9242 16.6858C75.9242 16.6858 80.1526 17.0537 78.6258 18.7823C79.2968 19.2342 79.3584 20.7578 78.4058 21.4863C76.8658 22.6716 77.3432 23.9952 76.1706 23.7581C75.1014 23.5408 74.1774 22.1975 74.3028 20.8023Z" fill="#263238"/>
<path d="M74.9056 20.5454C74.8761 20.7437 74.8092 20.9326 74.7094 21.0996C74.6096 21.2665 74.4793 21.4076 74.327 21.5134C73.9332 21.7604 73.7 21.5727 73.6934 21.1134C73.6934 20.701 73.8584 20.0318 74.2456 19.8787C74.6328 19.7256 74.9562 20.0861 74.9056 20.5454Z" fill="#FF8B7B"/>
<path d="M74.36 41.9798C74.36 41.9798 76.164 55.6208 77.154 60.73C78.2408 66.3257 84.0422 84.2659 84.0422 84.2659L86.8868 83.5744C86.8868 83.5744 82.544 66.7825 81.9258 61.2387C81.2526 55.2232 79.8468 41.9774 79.8468 41.9774L74.36 41.9798Z" fill="#263238"/>
<path d="M83.2788 82.8337C83.2656 82.8337 83.8882 84.3548 83.8882 84.3548L87.0914 83.577L86.7416 82.1299L83.2788 82.8337Z" fill="#0D214E"/>
<path opacity="0.7" d="M83.2788 82.8337C83.2656 82.8337 83.8882 84.3548 83.8882 84.3548L87.0914 83.577L86.7416 82.1299L83.2788 82.8337Z" fill="white"/>
<path opacity="0.3" d="M75.4974 46.8396C77.5852 47.2989 77.363 56.0332 77.1122 60.5251C76.5116 57.3494 75.6294 51.2401 75.0288 46.9038C75.1737 46.8222 75.3393 46.7995 75.4974 46.8396Z" fill="black"/>
<path d="M71.3394 41.9799C71.3394 41.9799 71.1194 55.3146 71.2954 60.7671C71.4736 66.4294 73.2358 84.9672 73.2358 84.9672H75.9308C75.9308 84.9672 76.0298 66.7603 76.1508 61.1992C76.2806 55.1393 76.934 41.9799 76.934 41.9799H71.3394Z" fill="#263238"/>
<path d="M72.7166 83.3942L72.8706 85.019H76.1464L76.2344 83.5374L72.7166 83.3942Z" fill="#0D214E"/>
<path opacity="0.7" d="M72.7166 83.3942L72.8706 85.019H76.1464L76.2344 83.5374L72.7166 83.3942Z" fill="white"/>
</svg>
