<svg width="40" height="40" viewBox="0 0 40 40" fill="none" xmlns="http://www.w3.org/2000/svg">
<circle cx="20" cy="20" r="20" fill="#3C2CF8"/>
<path d="M8 25.0488C8 26.1097 8.42143 27.1271 9.17157 27.8772C9.92172 28.6274 10.9391 29.0488 12 29.0488H21C21.6608 29.0488 22.3151 28.9178 22.925 28.6634C23.5348 28.409 24.0882 28.0362 24.5532 27.5666C25.0181 27.097 25.3853 26.5399 25.6336 25.9275C25.8819 25.3151 26.0064 24.6596 25.9997 23.9988C25.9931 23.338 25.8556 22.6851 25.5951 22.0778C25.3346 21.4705 24.9563 20.9208 24.4821 20.4606C24.0079 20.0004 23.4471 19.6388 22.8323 19.3966C22.2174 19.1545 21.5607 19.0366 20.9 19.0498C20.7734 18.3968 20.5178 17.7757 20.1483 17.2227C19.7787 16.6697 19.3026 16.196 18.7477 15.8292C18.1928 15.4624 17.5704 15.21 16.9168 15.0867C16.2632 14.9634 15.5916 14.9717 14.9413 15.1111C14.2909 15.2504 13.6749 15.5181 13.1292 15.8984C12.5836 16.2788 12.1193 16.7641 11.7634 17.326C11.4076 17.888 11.1674 18.5152 11.057 19.1711C10.9465 19.827 10.9679 20.4983 11.12 21.1458C10.2342 21.3458 9.44281 21.8411 8.87581 22.5504C8.30881 23.2597 7.99995 24.1407 8 25.0488V25.0488Z" stroke="white" stroke-width="2" stroke-linecap="round" stroke-linejoin="round"/>
<path d="M24 6V7V6ZM24 23V24V23ZM33 15H32H33ZM16 15H15H16ZM30.364 21.364L29.657 20.657L30.364 21.364ZM18.343 9.343L17.636 8.636L18.343 9.343ZM30.364 8.636L29.657 9.343L30.364 8.636ZM18.343 20.657L17.636 21.364L18.343 20.657ZM28 15C28 16.0609 27.5786 17.0783 26.8284 17.8284C26.0783 18.5786 25.0609 19 24 19C22.9391 19 21.9217 18.5786 21.1716 17.8284C20.4214 17.0783 20 16.0609 20 15C20 13.9391 20.4214 12.9217 21.1716 12.1716C21.9217 11.4214 22.9391 11 24 11C25.0609 11 26.0783 11.4214 26.8284 12.1716C27.5786 12.9217 28 13.9391 28 15V15Z" stroke="white" stroke-width="2" stroke-linecap="round" stroke-linejoin="round"/>
<path d="M15.9006 21.4563C16.2639 21.5216 16.6899 21.5533 17.0173 21.7434C17.0524 21.7638 17.2603 21.9576 17.2087 21.9029C16.925 21.6026 16.4177 21.09 16.3393 20.6586C16.3013 20.4499 16.0488 19.7985 16.443 19.9089C16.8059 20.0105 17.0019 20.174 17.121 20.531C17.2818 21.0136 17.4429 21.8942 17.7989 22.2858C18.1776 22.7023 18.5566 22.6909 19.0592 22.892" stroke="#3C2CF8" stroke-width="3" stroke-linecap="round"/>
<path d="M17.1927 19.7334C17.5136 20.2052 17.8137 20.7936 18.3413 21.0574C18.5657 21.1697 18.7369 21.2775 18.9156 21.4563" stroke="#3C2CF8" stroke-width="3" stroke-linecap="round"/>
<path d="M21.2011 23.1779C21.5964 23.4132 21.86 23.4755 22.3035 23.4755C22.4175 23.4755 23.0366 23.603 23.0366 23.6988C23.0366 23.8987 22.9327 24.3931 23.1469 24.4787C23.4297 24.5918 23.6901 24.7157 24.004 24.7157C24.3736 24.7157 24.2684 24.361 24.3292 24.148C24.346 24.0893 24.4257 23.8372 24.4257 24.0322C24.4257 24.1594 24.5041 24.4167 24.3761 24.2086C24.2947 24.0763 24.2878 23.9057 24.1528 23.8007C24.0895 23.7515 24.07 23.7239 24.0288 23.6519C23.9978 23.5977 23.8998 23.6563 23.8827 23.5968C23.8184 23.3716 23.708 23.2506 23.5823 23.0621C23.4679 22.8904 23.4254 22.6241 23.2847 22.4833" stroke="#3C2CF8" stroke-linecap="round"/>
<path d="M22.4413 22.2849C22.7044 22.5081 22.7966 22.8076 22.8768 23.1282C22.9179 23.2926 22.975 23.5613 23.0642 23.7015C23.125 23.7971 23.222 24.0212 23.3343 24.0212C23.4218 24.0212 23.5976 24.1014 23.6319 24.17" stroke="#3C2CF8" stroke-linecap="round"/>
<path d="M23.0366 22.1857C23.319 22.2492 23.469 22.4337 23.6319 22.4337C23.8437 22.4337 24.128 22.455 24.128 22.7314" stroke="#3C2CF8" stroke-linecap="round"/>
<path d="M23.3839 22.1857C23.544 22.1857 23.7326 22.1644 23.88 22.2463C23.967 22.2946 23.9594 22.3345 24.0784 22.3345" stroke="#3C2CF8" stroke-linecap="round"/>
<path d="M24.0288 23.2771H24.4257" stroke="#3C2CF8" stroke-linecap="round"/>
<path d="M23.4335 22.5826C23.74 22.5227 23.8898 22.5153 24.1528 22.6322C24.2532 22.6768 24.2272 22.788 24.2272 22.8802C24.2272 23.0621 24.3479 22.9675 24.3733 23.0566C24.3939 23.1287 24.3761 23.2297 24.3761 23.3046C24.3761 23.4234 24.4706 23.4921 24.4753 23.6133C24.4824 23.7983 24.4753 23.9849 24.4753 24.17" stroke="#3C2CF8" stroke-linecap="round"/>
</svg>
